HIERARCHY
ROOT root
{
	OFFSET	0	13.1	24.9
	CHANNELS 6  Xposition Yposition Zposition Xrotation Yrotation Zrotation
	JOINT spine_1
	{
		OFFSET	0	9.99999	0
		CHANNELS 3  Xrotation Yrotation Zrotation
		JOINT spine_2
		{
			OFFSET	0	112	-10
			CHANNELS 3  Xrotation Yrotation Zrotation
			JOINT spine_3
			{
				OFFSET	0	206.5	19.3
				CHANNELS 3  Xrotation Yrotation Zrotation
				JOINT spine_4
				{
					OFFSET	0	110.4	14.6
					CHANNELS 3  Xrotation Yrotation Zrotation
					JOINT neck_1
					{
						OFFSET	0	71.8	-50.3
						CHANNELS 3  Xrotation Yrotation Zrotation
						JOINT neck_2
						{
							OFFSET	0	86.2	-25.8
							CHANNELS 3  Xrotation Yrotation Zrotation
							JOINT head_ee
							{
								OFFSET	0	179.8	-8.7
								CHANNELS 3  Xrotation Yrotation Zrotation
								End Site
								{
									OFFSET	1	0	0
								}
							}
						}
					}
					JOINT left_clavicle
					{
						OFFSET	-43.2	22.4	-70.8
						CHANNELS 3  Xrotation Yrotation Zrotation
						JOINT left_shoulder
						{
							OFFSET	-93.9	-5.79999	48.7
							CHANNELS 3  Xrotation Yrotation Zrotation
							JOINT left_elbow
							{
								OFFSET	-291.4	-30.8	15.2
								CHANNELS 3  Xrotation Yrotation Zrotation
								JOINT left_lowarm_twist
								{
									OFFSET	-110.7	-3.89999	13.6
									CHANNELS 3  Xrotation Yrotation Zrotation
									JOINT left_hand
									{
										OFFSET	-110.7	-3.89999	13.6
										CHANNELS 3  Xrotation Yrotation Zrotation
										JOINT left_ee
										{
											OFFSET	-80.8	-5.10001	12.1
											CHANNELS 3  Xrotation Yrotation Zrotation
											End Site
											{
												OFFSET	1	0	0
											}
										}
									}
								}
							}
						}
					}
					JOINT right_clavicle
					{
						OFFSET	43.2	22.4	-70.8
						CHANNELS 3  Xrotation Yrotation Zrotation
						JOINT right_shoulder
						{
							OFFSET	93.9	-5.79999	48.7
							CHANNELS 3  Xrotation Yrotation Zrotation
							JOINT right_elbow
							{
								OFFSET	291.4	-30.8	15.2
								CHANNELS 3  Xrotation Yrotation Zrotation
								JOINT right_lowarm_twist
								{
									OFFSET	110.7	-3.89999	13.6
									CHANNELS 3  Xrotation Yrotation Zrotation
									JOINT right_hand
									{
										OFFSET	110.7	-3.89999	13.6
										CHANNELS 3  Xrotation Yrotation Zrotation
										JOINT right_ee
										{
											OFFSET	80.8	-5.10001	12.1
											CHANNELS 3  Xrotation Yrotation Zrotation
											End Site
											{
												OFFSET	1	0	0
											}
										}
									}
								}
							}
						}
					}
				}
			}
		}
	}
	JOINT left_hip
	{
		OFFSET	-82.8	-127.5	0.300001
		CHANNELS 3  Xrotation Yrotation Zrotation
		JOINT left_knee
		{
			OFFSET	-28.2	-396.7	2.2
			CHANNELS 3  Xrotation Yrotation Zrotation
			JOINT left_ankle
			{
				OFFSET	-11.7	-411.3	35.4
				CHANNELS 3  Xrotation Yrotation Zrotation
				JOINT left_toes
				{
					OFFSET	0	-60	-88.6
					CHANNELS 3  Xrotation Yrotation Zrotation
					JOINT left_foot_ee
					{
						OFFSET	-22.5	-16.5	-42.2
						CHANNELS 3  Xrotation Yrotation Zrotation
						End Site
						{
							OFFSET	1	0	0
						}
					}
				}
			}
		}
	}
	JOINT right_hip
	{
		OFFSET	82.8	-127.5	0.300001
		CHANNELS 3  Xrotation Yrotation Zrotation
		JOINT right_knee
		{
			OFFSET	28.2	-396.7	2.2
			CHANNELS 3  Xrotation Yrotation Zrotation
			JOINT right_ankle
			{
				OFFSET	11.7	-411.3	35.4
				CHANNELS 3  Xrotation Yrotation Zrotation
				JOINT right_toes
				{
					OFFSET	0	-60	-88.6
					CHANNELS 3  Xrotation Yrotation Zrotation
					JOINT right_foot_ee
					{
						OFFSET	22.5	-16.5	-42.2
						CHANNELS 3  Xrotation Yrotation Zrotation
						End Site
						{
							OFFSET	1	0	0
						}
					}
				}
			}
		}
	}
}
MOTION
Frames: 5
Frame Time: 0.02
1527.47 722.491 -1480.2 -163.659 70.6188 164.277 1.51828 -0.46835 0.0397851 1.51816 -0.469932 0.00990145 1.51807 -0.463715 -0.0768299 1.51837 -0.470029 -0.00262889 1.88488 -0.40166 0.647989 1.88809 -1.25079 0.67894 -0.0 0.0 -0.0 5.61575 -8.8386 10.5359 -3.81983 -50.7692 46.7144 3.92037 -62.7374 2.39065 -13.0912 -0.640604 1.54276 -0.310238 -8.01463 -5.50515 -0.0 0.0 -0.0 8.08202 -11.3141 -15.2371 -47.8692 6.37688 -64.6483 1.11792 28.9762 -0.288876 28.5937 -0.107675 3.61337 2.09266 11.7563 -9.14599 0.0 0.0 0.0 4.06836 2.74084 -5.38193 -15.7119 0.322055 2.38211 29.22 -31.8962 -4.82686 2.63665 -0.0 -0.0 -0.0 0.0 -0.0 38.8753 -49.1577 8.34525 9.45292 0.502893 1.36083 -19.9552 26.0079 -3.64969 -11.0427 0.0 0.0 0.0 0.0 0.0 
1516.23 726.02 -1488.49 -163.238 70.2465 163.142 1.55907 -0.453209 0.165071 1.55897 -0.462794 0.135898 1.55784 -0.479874 0.0486541 1.55814 -0.466168 0.123832 3.83268 0.0488816 0.861337 3.83571 -0.658181 0.973031 -0.0 0.0 -0.0 4.70598 -8.85394 8.64577 -5.27775 -51.1177 46.9672 3.72242 -61.5125 2.21566 -13.4043 -0.660181 1.57772 -0.199084 -7.61876 -4.58233 -0.0 0.0 -0.0 8.38933 -10.7893 -15.8275 -46.4927 6.81681 -64.5895 1.13581 29.3631 -0.297591 28.9469 -0.0977023 3.65738 2.23533 13.1243 -9.50479 0.0 0.0 0.0 4.78202 2.63137 -5.3821 -17.2865 0.318072 2.62365 29.5205 -31.7375 -4.85542 3.01387 -0.0 -0.0 -0.0 0.0 -0.0 37.3069 -48.7889 7.87705 9.84687 0.528686 1.41564 -18.9364 27.2344 -3.51547 -10.7518 0.0 0.0 0.0 0.0 0.0 
1497.84 724.433 -1490.87 -163.452 69.8399 162.95 1.58521 -0.437041 0.299838 1.58515 -0.455234 0.27142 1.58295 -0.497236 0.183475 1.5832 -0.462019 0.259703 4.30755 0.586883 1.03448 4.31028 0.114711 1.20549 -0.0 0.0 -0.0 4.56613 -8.70664 8.36543 -5.9186 -51.2919 47.6777 3.46679 -59.7735 1.99283 -13.8967 -0.691356 1.63249 -0.10635 -7.04265 -3.7084 -0.0 0.0 -0.0 8.61824 -10.1553 -16.2923 -45.4725 7.01321 -64.403 1.12131 29.0498 -0.29052 29.4287 -0.0836598 3.71732 2.12701 13.7652 -8.47801 0.0 0.0 0.0 5.53924 2.47342 -5.49534 -19.5926 0.300263 2.97702 28.3868 -31.3331 -4.68177 3.00571 -0.0 -0.0 -0.0 0.0 -0.0 37.1735 -48.4466 8.54213 10.383 0.564397 1.48995 -18.8375 28.6363 -3.56129 -10.5998 0.0 0.0 0.0 0.0 0.0 
1482.23 722.176 -1496.0 -163.411 68.8828 162.66 1.72256 -0.437507 0.307068 1.7225 -0.45616 0.278606 1.72024 -0.499003 0.191566 1.72049 -0.462487 0.267972 4.27855 1.12643 1.10651 4.28172 0.983394 1.31786 -0.0 0.0 -0.0 4.4258 -8.46607 8.09069 -6.44368 -51.4545 48.6643 3.27247 -58.3176 1.82618 -14.4803 -0.728921 1.69706 -0.0261119 -6.50702 -2.93731 -0.0 0.0 -0.0 8.95712 -9.428 -16.9741 -44.3692 7.20812 -64.2453 1.03451 27.1329 -0.249638 30.1158 -0.0627618 3.8026 1.88762 14.0464 -6.72945 0.0 0.0 0.0 5.81753 2.23944 -5.83161 -20.5011 0.289344 3.116 26.1908 -30.7233 -4.3505 2.75787 -0.0 -0.0 -0.0 0.0 -0.0 36.5412 -48.3204 8.56324 9.67402 0.517322 1.39162 -18.9609 29.0923 -3.60679 -10.4522 0.0 0.0 0.0 0.0 0.0 
1463.0 717.251 -1501.46 -161.917 68.3617 160.903 1.98304 -0.359343 0.294274 1.983 -0.37734 0.270811 1.9812 -0.419166 0.200059 1.98134 -0.38231 0.263748 4.15623 1.85208 1.18721 4.16243 2.16977 1.45123 -0.0 0.0 -0.0 4.21673 -7.95555 7.69286 -6.74704 -51.4871 50.0357 3.04591 -56.4537 1.63531 -15.313 -0.783649 1.78851 0.0747959 -5.73888 -1.92871 -0.0 0.0 -0.0 9.41739 -8.3563 -17.9259 -42.8699 7.67661 -63.8539 0.913885 24.3565 -0.19723 31.0962 -0.0311767 3.92383 1.53399 14.3572 -4.20539 0.0 0.0 0.0 6.03716 1.79128 -6.41253 -21.8173 0.26962 3.31699 22.9804 -29.9131 -3.85668 2.40384 -0.0 -0.0 -0.0 0.0 -0.0 36.2161 -48.3673 9.5592 8.65115 0.451569 1.24876 -19.2624 29.4059 -3.68014 -10.2943 0.0 0.0 0.0 0.0 0.0 
